<svg id="Layer_1" data-name="Layer 1" xmlns="http://www.w3.org/2000/svg" viewBox="0 0 308.27 267.48"><defs><style>.cls-1{fill:#231f20;}</style></defs><title>northwind</title><polygon class="cls-1" points="107.42 191.8 96.33 211.8 0 211.8 11.09 191.8 107.42 191.8"/><polygon class="cls-1" points="152.95 191.8 164.03 211.8 141.16 211.8 130.07 191.8 152.95 191.8"/><polygon class="cls-1" points="213.97 191.8 202.89 211.8 180.02 211.8 183.46 205.6 190.71 192.52 190.32 191.8 213.97 191.8"/><polygon class="cls-1" points="308.27 211.8 236.68 211.8 225.6 191.8 297.18 191.8 308.27 211.8"/><polygon class="cls-1" points="93.45 84.46 93.45 84.47 82.01 105.09 33.95 191.8 22.87 211.8 0 211.8 11.09 191.8 70.58 84.47 82.01 63.85 82.02 63.84 93.45 84.46"/><polygon class="cls-1" points="227.9 148.49 232.94 157.58 219.78 181.32 213.97 191.8 202.89 211.8 202.14 213.14 194.89 226.22 183.46 246.84 183.46 246.85 172.02 267.48 160.59 246.86 172.03 226.22 180.02 211.8 183.46 205.6 190.71 192.52 191.11 191.8 208.35 160.69 221.51 136.95 227.9 148.49"/><polygon class="cls-1" points="255.58 116.75 244.37 136.95 244.14 137.37 232.71 116.74 232.94 116.33 244.14 96.12 255.58 116.75"/><polygon class="cls-1" points="107.42 191.8 96.33 211.8 73.47 211.8 84.55 191.8 107.42 191.8"/><polygon class="cls-1" points="130.19 150.73 130.18 150.74 118.75 171.36 107.31 150.74 118.75 130.11 130.19 150.73"/><polygon class="cls-1" points="202.3 20.63 191.1 40.84 190.87 41.25 179.67 61.46 166.51 85.2 166.51 85.21 148.87 117.02 141.62 130.1 130.18 109.48 137.43 96.4 137.43 96.39 155.07 64.58 168.23 40.83 179.43 20.62 179.66 20.21 190.86 0 202.3 20.63"/><polygon class="cls-1" points="183.46 246.84 183.46 246.85 172.02 267.48 160.59 246.86 141.16 211.8 130.07 191.8 118.75 171.36 107.31 150.74 82.01 105.09 70.58 84.47 82.01 63.85 82.02 63.84 93.45 84.46 93.45 84.47 118.75 130.1 118.75 130.11 130.19 150.73 152.95 191.8 164.03 211.8 164.04 211.8 172.03 226.22 183.46 246.84"/><polygon class="cls-1" points="82.02 63.84 93.45 84.46 82.01 63.85 82.02 63.84"/><polygon class="cls-1" points="130.19 150.73 152.95 191.8 130.18 150.74 118.75 130.11 130.19 150.73"/><polygon class="cls-1" points="194.89 226.22 183.46 246.84 172.03 226.22 180.02 211.8 183.46 205.6 186.9 211.8 194.89 226.22"/><polygon class="cls-1" points="166.51 85.2 166.51 85.21 148.87 117.02 137.43 96.4 137.43 96.39 155.07 64.58 166.51 85.2"/><polygon class="cls-1" points="219.78 181.32 213.97 191.8 202.89 211.8 202.14 213.14 201.4 211.8 190.71 192.52 190.32 191.8 191.11 191.8 208.35 160.69 219.78 181.32"/><polygon class="cls-1" points="308.27 211.8 285.4 211.8 274.32 191.8 244.14 137.37 232.71 116.74 190.87 41.25 179.43 20.62 179.66 20.21 190.86 0 202.3 20.63 244.14 96.12 255.58 116.75 297.18 191.8 308.27 211.8"/><polygon class="cls-1" points="285.86 211.8 263 211.8 258.08 202.92 251.91 191.8 274.32 191.8 244.14 137.37 232.71 116.74 190.87 41.25 179.67 61.46 174.63 52.37 168.23 40.83 179.43 20.62 179.66 20.21 186.06 31.75 191.1 40.84 227.9 107.24 232.94 116.33 239.34 127.87 244.37 136.95 274.78 191.8 280.94 202.92 285.86 211.8"/></svg>